<svg width="20" height="20" viewBox="0 0 31 29" fill="none" xmlns="http://www.w3.org/2000/svg">
<path d="M0 29V8.60324C0 6.07321 0.786849 4.00991 2.36347 2.40481C3.94009 0.802551 5.98766 0 8.50031 0C11.4839 0 13.7772 1.33474 15.383 4.00137C16.3629 2.56418 17.4131 1.53965 18.5363 0.92208C19.6566 0.30736 21.0402 0 22.6899 0C25.302 0 27.3057 0.802551 28.698 2.40481C30.0904 4.00707 30.7866 6.31511 30.7866 9.32895V29H22.1371V10.5925C22.1371 9.68185 22.061 9.07566 21.9118 8.77969C21.7627 8.48371 21.4614 8.33287 21.0051 8.33287C20.1539 8.33287 19.7268 9.03866 19.7268 10.4474V19.5H11.0773V10.5925C11.0773 9.69323 10.9983 9.09274 10.8433 8.78822C10.6883 8.48371 10.3811 8.33287 9.92775 8.33287C9.07655 8.33287 8.64949 9.08705 8.64949 10.5925V29H0Z" fill="#5FC2D9"/>
</svg>
